<svg id="Group_50601" data-name="Group 50601" xmlns="http://www.w3.org/2000/svg" xmlns:xlink="http://www.w3.org/1999/xlink" width="421.546" height="318.88" viewBox="0 0 421.546 318.88">
  <defs>
    <clipPath id="clip-path">
      <rect id="Rectangle_87409" data-name="Rectangle 87409" width="421.546" height="318.88" fill="none"/>
    </clipPath>
  </defs>
  <path id="Path_61584" data-name="Path 61584" d="M228.779,0,167.754,40.6H195.8L186.72,68.353l33.009,27.158L236.975,40.6h18.7Z" fill="#0060af"/>
  <g id="Group_50600" data-name="Group 50600">
    <g id="Group_50599" data-name="Group 50599" clip-path="url(#clip-path)">
      <path id="Path_61585" data-name="Path 61585" d="M202.309,153.1l32.628,27.408a67.361,67.361,0,0,0,44.392,16.5,68.351,68.351,0,1,0-59.6-101.5l36.756,30.806a22.943,22.943,0,1,1,7.809,19.726l-47.812-39.991Z" fill="#d82886"/>
      <path id="Path_61586" data-name="Path 61586" d="M216.438,106.121l-32.619-27.4a67.4,67.4,0,0,0-44.4-16.513A68.354,68.354,0,1,0,199,163.713l-36.756-30.806a22.932,22.932,0,1,1-7.817-19.73l47.829,39.995Z" fill="#0060af"/>
      <path id="Path_61587" data-name="Path 61587" d="M198.863,163.713l34.459,28.323L230.11,202.7h18.983l-10.07,33.156H220.031l-5.993,20.01H170.666l6.123-20.01H156.044l10.977-33.009h19.7Z" fill="#d82886"/>
      <path id="Path_61588" data-name="Path 61588" d="M7.22,313.577v-24.8H0l1.779-7.435H20.166l1.442,7.435H14.336v24.8Z" fill="#0060af"/>
      <path id="Path_61589" data-name="Path 61589" d="M25.546,310.576V281.342h6.659V291.6h7.108V281.342h7.1v32.235h-7.1V298.7H32.205v11.875a5.146,5.146,0,0,0,.6,2.98l-6.3,4.992q-.957-1.885-.95-7.967" fill="#0060af"/>
      <path id="Path_61590" data-name="Path 61590" d="M55.239,318.319c-.726-1.541-1.3-2.85-1.728-3.9a31.727,31.727,0,0,1-2.5-11.98q0-9.236,3.505-14.638,4.159-6.451,12.9-6.456h4.422l1.831,7.769H68.608a12.04,12.04,0,0,0-5.57,1.019c-1.909,1.044-3.3,3.066-4.172,6.088h6.693v-6.464h7.1v23.824h-7.1v-9.919H58.167l-.052.583a15.862,15.862,0,0,0,1.071,5.1A25.855,25.855,0,0,0,61.06,313.6Z" fill="#0060af"/>
      <rect id="Rectangle_87407" data-name="Rectangle 87407" width="7.099" height="32.235" transform="translate(77.098 281.342)" fill="#0060af"/>
      <path id="Path_61591" data-name="Path 61591" d="M106.609,313.577V281.342h6.771l7.547,11.434V281.342h6.763v32.235h-6.763v-8.736l-7.53-11.189-.017,19.925Z" fill="#0060af"/>
      <rect id="Rectangle_87408" data-name="Rectangle 87408" width="7.116" height="32.235" transform="translate(132.121 281.342)" fill="#0060af"/>
      <path id="Path_61592" data-name="Path 61592" d="M145.067,313.577V289.335h6.874v9.042a13.067,13.067,0,0,0,3.671-3.213c1.312-1.576,1.96-2.906,1.96-3.99,0-1.607-1.329-2.4-3.981-2.4H143.6l1.667-7.435h9.051q10.364,0,10.364,8.968v.489c0,3.445-1.425,6.74-4.284,9.849a27.687,27.687,0,0,1-8.455,6.209v6.72Z" fill="#0060af"/>
      <path id="Path_61593" data-name="Path 61593" d="M170.19,313.577V289.335h6.875v9.042a13.343,13.343,0,0,0,3.679-3.213c1.3-1.576,1.969-2.906,1.969-3.99,0-1.607-1.338-2.4-4-2.4h-9.992l1.684-7.435h9.043q10.363,0,10.354,8.968v.489c0,3.445-1.433,6.74-4.274,9.849a27.752,27.752,0,0,1-8.464,6.209v6.72Z" fill="#0060af"/>
      <path id="Path_61594" data-name="Path 61594" d="M193.863,294.12v-.976a12.827,12.827,0,0,1,2.3-8.274q3.033-4.211,9.587-4.207t9.707,3.939a12.294,12.294,0,0,1,2.4,7.929v.924a34.737,34.737,0,0,1-2.4,13.3q-3.276,7.839-9.733,7.842-5.468,0-8.86-6.835a32.184,32.184,0,0,1-3.006-13.641m7.323.647a22.546,22.546,0,0,0,1.451,8.309q1.425,3.522,3.343,3.519h.146c1.236,0,2.341-1.706,3.29-5.1a26.023,26.023,0,0,0,1.115-6.421v-1.007q0-5.628-4.776-5.626a4.155,4.155,0,0,0-3.636,1.653,5.366,5.366,0,0,0-.933,3.486Z" fill="#0060af"/>
      <path id="Path_61595" data-name="Path 61595" d="M221.889,313.577V281.342h6.77l7.549,11.434V281.342h6.762v32.235h-6.762v-8.736l-7.522-11.189-.027,19.925Z" fill="#0060af"/>
      <path id="Path_61596" data-name="Path 61596" d="M265.907,288.778l1.737-7.436h13.127a7.051,7.051,0,0,1,5.632,2.4,8.588,8.588,0,0,1,1.952,5.877,12.084,12.084,0,0,1-5.545,10.369,87.326,87.326,0,0,0,7.566,13.969l-5.9,4.927a77.543,77.543,0,0,1-7.754-14.686c-.881-2.1-1.608-4.025-2.2-5.748a32.828,32.828,0,0,0,3.594-3.312,9,9,0,0,0,2.322-4.193v-.367c0-1.205-1.337-1.8-4-1.8Zm1.469.557h6.762v24.242h-6.762Z" fill="#0060af"/>
      <path id="Path_61597" data-name="Path 61597" d="M294.452,301.223a42.775,42.775,0,0,1,2.375-13.888c.467-1.36,1.252-3.355,2.383-5.993h7.635c-.743,1.887-1.348,3.381-1.77,4.478-2.359,5.9-3.525,10.553-3.525,13.982a7.7,7.7,0,0,0,1.062,4.34,4.216,4.216,0,0,0,3.7,2h3.016v-24.8H316.1v32.235h-11.02a9.634,9.634,0,0,1-8.119-3.653,13.93,13.93,0,0,1-2.5-8.7" fill="#0060af"/>
      <path id="Path_61598" data-name="Path 61598" d="M322.046,289.421h6.883v17.057h4.24c1.684,0,2.531-.561,2.531-1.68q0-1.763-2.513-4.5a19.375,19.375,0,0,0-4.043-3.472c1.615-1.563,2.748-2.694,3.343-3.385,1.3-1.459,1.959-2.556,1.959-3.287,0-.911-.853-1.373-2.554-1.373H320.585l1.461-7.435h11.59q8.586,0,8.592,7.487a11.44,11.44,0,0,1-.836,4.655,9.33,9.33,0,0,1-2.428,2.837c1.33,1.33,2.021,2.065,2.125,2.186a11.231,11.231,0,0,1,2.6,7.4q0,7.682-8.577,7.669H322.046Z" fill="#0060af"/>
      <path id="Path_61599" data-name="Path 61599" d="M349.241,289.421h6.883v17.057h4.25c1.676,0,2.5-.561,2.5-1.68,0-1.175-.828-2.673-2.5-4.5a19.368,19.368,0,0,0-4.041-3.472q2.448-2.344,3.351-3.385c1.3-1.459,1.959-2.556,1.959-3.287,0-.911-.853-1.373-2.564-1.373h-11.3l1.459-7.435h11.6q8.586,0,8.591,7.487a11.565,11.565,0,0,1-.828,4.655,9.835,9.835,0,0,1-2.427,2.837c1.312,1.33,2.021,2.065,2.117,2.186a11.283,11.283,0,0,1,2.6,7.4q0,7.682-8.576,7.669H349.241Z" fill="#0060af"/>
      <path id="Path_61600" data-name="Path 61600" d="M374.417,313.577V281.342h16.141l1.486,7.435H381.517v4.616h9.55l-1.484,7.45h-8.066v5.3h11.226l-1.416,7.437Z" fill="#0060af"/>
      <path id="Path_61601" data-name="Path 61601" d="M397.087,288.778l1.736-7.436H411.95a7.043,7.043,0,0,1,5.631,2.4,8.632,8.632,0,0,1,1.961,5.877,12.094,12.094,0,0,1-5.553,10.369,88.705,88.705,0,0,0,7.557,13.969l-5.881,4.927a77.055,77.055,0,0,1-7.766-14.686c-.871-2.1-1.6-4.025-2.193-5.748a33.96,33.96,0,0,0,3.6-3.312,8.937,8.937,0,0,0,2.306-4.193v-.367c0-1.205-1.33-1.8-4-1.8Zm1.461.557h6.762v24.242h-6.762Z" fill="#0060af"/>
    </g>
  </g>
</svg>
